<svg width="512" height="512" viewBox="0 0 512 512" fill="none" xmlns="http://www.w3.org/2000/svg">
<rect width="512" height="512" fill="#0F0F0F"/>
<rect x="95" y="192.877" width="322" height="126.247" fill="#FAFAFA"/>
<path d="M178.576 246.51H164.35C164.09 244.669 163.559 243.034 162.758 241.605C161.957 240.154 160.928 238.92 159.672 237.902C158.416 236.884 156.966 236.105 155.32 235.564C153.696 235.022 151.931 234.751 150.026 234.751C146.583 234.751 143.583 235.607 141.028 237.317C138.473 239.006 136.492 241.475 135.084 244.723C133.677 247.95 132.973 251.869 132.973 256.481C132.973 261.223 133.677 265.208 135.084 268.434C136.513 271.661 138.506 274.097 141.061 275.742C143.616 277.388 146.572 278.211 149.928 278.211C151.812 278.211 153.555 277.962 155.157 277.464C156.782 276.966 158.222 276.24 159.477 275.288C160.733 274.313 161.773 273.133 162.596 271.747C163.44 270.361 164.025 268.781 164.35 267.005L178.576 267.07C178.208 270.123 177.288 273.068 175.815 275.905C174.364 278.72 172.405 281.242 169.936 283.473C167.489 285.681 164.566 287.435 161.166 288.735C157.788 290.012 153.967 290.651 149.701 290.651C143.768 290.651 138.462 289.308 133.785 286.623C129.129 283.938 125.448 280.051 122.742 274.963C120.057 269.874 118.714 263.714 118.714 256.481C118.714 249.227 120.078 243.056 122.807 237.967C125.535 232.878 129.238 229.002 133.915 226.339C138.592 223.654 143.854 222.311 149.701 222.311C153.555 222.311 157.128 222.853 160.419 223.935C163.732 225.018 166.667 226.599 169.222 228.678C171.777 230.735 173.856 233.257 175.458 236.246C177.082 239.234 178.121 242.655 178.576 246.51ZM202.628 290.684C199.445 290.684 196.608 290.131 194.118 289.027C191.628 287.901 189.658 286.244 188.207 284.057C186.778 281.849 186.063 279.099 186.063 275.807C186.063 273.036 186.572 270.708 187.59 268.824C188.607 266.94 189.993 265.424 191.747 264.277C193.501 263.129 195.493 262.263 197.724 261.678C199.976 261.093 202.336 260.682 204.804 260.444C207.706 260.141 210.045 259.859 211.82 259.599C213.596 259.318 214.884 258.906 215.686 258.365C216.487 257.824 216.887 257.023 216.887 255.961V255.767C216.887 253.709 216.238 252.118 214.938 250.992C213.661 249.866 211.842 249.303 209.482 249.303C206.992 249.303 205.01 249.855 203.538 250.959C202.065 252.042 201.091 253.406 200.614 255.052L187.817 254.013C188.467 250.981 189.744 248.361 191.65 246.152C193.555 243.922 196.013 242.211 199.023 241.02C202.054 239.808 205.562 239.201 209.547 239.201C212.318 239.201 214.971 239.526 217.504 240.176C220.06 240.825 222.322 241.832 224.293 243.197C226.285 244.561 227.855 246.315 229.003 248.458C230.15 250.58 230.724 253.125 230.724 256.091V289.742H217.602V282.823H217.212C216.411 284.382 215.339 285.757 213.997 286.948C212.654 288.118 211.041 289.038 209.157 289.709C207.273 290.359 205.097 290.684 202.628 290.684ZM206.591 281.134C208.626 281.134 210.424 280.734 211.983 279.932C213.542 279.11 214.765 278.005 215.653 276.619C216.541 275.233 216.985 273.664 216.985 271.91V266.615C216.552 266.897 215.956 267.157 215.198 267.395C214.462 267.611 213.628 267.817 212.697 268.012C211.766 268.185 210.835 268.348 209.904 268.499C208.973 268.629 208.128 268.748 207.37 268.856C205.746 269.095 204.328 269.474 203.115 269.993C201.903 270.513 200.961 271.217 200.29 272.104C199.618 272.971 199.283 274.053 199.283 275.353C199.283 277.236 199.965 278.676 201.329 279.673C202.715 280.647 204.469 281.134 206.591 281.134ZM241.459 289.742V239.851H254.874V248.556H255.393C256.303 245.459 257.829 243.121 259.973 241.54C262.117 239.938 264.585 239.136 267.379 239.136C268.072 239.136 268.819 239.18 269.62 239.266C270.421 239.353 271.125 239.472 271.731 239.624V251.901C271.082 251.706 270.183 251.533 269.035 251.382C267.888 251.23 266.837 251.154 265.885 251.154C263.849 251.154 262.03 251.598 260.428 252.486C258.847 253.352 257.591 254.565 256.66 256.124C255.751 257.683 255.296 259.48 255.296 261.516V289.742H241.459ZM271.431 234.816V223.221H326.064V234.816H305.698V289.742H291.796V234.816H271.431ZM393.153 256.481C393.153 263.735 391.778 269.907 389.028 274.995C386.299 280.084 382.575 283.971 377.854 286.656C373.155 289.319 367.872 290.651 362.004 290.651C356.092 290.651 350.787 289.308 346.088 286.623C341.389 283.938 337.676 280.051 334.947 274.963C332.219 269.874 330.855 263.714 330.855 256.481C330.855 249.227 332.219 243.056 334.947 237.967C337.676 232.878 341.389 229.002 346.088 226.339C350.787 223.654 356.092 222.311 362.004 222.311C367.872 222.311 373.155 223.654 377.854 226.339C382.575 229.002 386.299 232.878 389.028 237.967C391.778 243.056 393.153 249.227 393.153 256.481ZM378.894 256.481C378.894 251.782 378.19 247.82 376.782 244.593C375.397 241.367 373.437 238.92 370.903 237.253C368.37 235.585 365.403 234.751 362.004 234.751C358.604 234.751 355.637 235.585 353.104 237.253C350.57 238.92 348.6 241.367 347.192 244.593C345.807 247.82 345.114 251.782 345.114 256.481C345.114 261.18 345.807 265.143 347.192 268.369C348.6 271.596 350.57 274.042 353.104 275.71C355.637 277.377 358.604 278.211 362.004 278.211C365.403 278.211 368.37 277.377 370.903 275.71C373.437 274.042 375.397 271.596 376.782 268.369C378.19 265.143 378.894 261.18 378.894 256.481Z" fill="black"/>
</svg>
